<svg xmlns="http://www.w3.org/2000/svg" xmlns:xlink="http://www.w3.org/1999/xlink" x="0" y="0" version="1.1" viewBox="0 0 1920 1080" style="enable-background:new 0 0 1920 1080" xml:space="preserve"><style type="text/css">.st0{fill:#fff}.st1{fill:url(#SVGID_1_)}</style><g id="Layer_7"><path d="M539.27,629.1H383.48l-32.6,89.35h-72.65l151.93-383.74h62.71l152.2,383.74h-72.92L539.27,629.1z M403.09,575.34h116.57l-58.28-159.19L403.09,575.34z" class="st0"/></g><g id="Layer_6"><path d="M985.71,718.45h-70.49L734.4,446.2v272.25h-70.49V334.71h70.49l181.38,273.31V334.71h69.93V718.45z" class="st0"/></g><g id="Layer_5"><path d="M1142.13,718.45h-80.26V334.71h80.26V718.45z" class="st0"/></g><g id="Layer_4"><path d="M1294.46,718.45h-79.07V334.71h79.07V718.45z" class="st0"/></g><g id="Layer_3"><linearGradient id="SVGID_1_" x1="1352.709" x2="1673.195" y1="526.581" y2="526.581" gradientUnits="userSpaceOnUse"><stop offset="0" style="stop-color:#ff55a2"/><stop offset="1" style="stop-color:#ff5864"/></linearGradient><path d="M1512.95,473.34l80.65-138.63h76.96L1554.59,525l118.6,193.45h-77.75l-82.49-140.74l-82.76,140.74h-77.49 L1471.57,525l-116.23-190.29h76.96L1512.95,473.34z" class="st1"/></g></svg>